<?xml version="1.0" encoding="UTF-8"?>
<svg width="95px" height="57px" viewBox="0 0 95 57" version="1.1" xmlns="http://www.w3.org/2000/svg" xmlns:xlink="http://www.w3.org/1999/xlink">
    <title>Lori</title>
    <g id="页面-1" stroke="none" stroke-width="1" fill="none" fill-rule="evenodd">
        <g id="Lori" transform="translate(-165.000000, -79.000000)" fill="#E0BB64" fill-rule="nonzero">
            <path d="M191.787109,129 L191.787109,122.876953 L174.986328,122.876953 L174.986328,86.2851562 L168.511719,86.2851562 L168.511719,129 L191.787109,129 Z M207.369141,129.351562 C209.771485,129.3125 211.714844,128.873047 213.199219,128.033203 C214.000001,127.681641 214.654297,127.261719 215.16211,126.773438 C215.728516,126.34375 216.207032,125.904297 216.597657,125.455078 C217.808594,124.224609 218.667969,122.769531 219.175782,121.089844 C219.664063,119.410156 219.908204,116.96875 219.908204,113.765625 C219.908204,110.5625 219.664063,108.101562 219.175782,106.382812 C218.667969,104.703125 217.808594,103.287109 216.597657,102.134766 C215.796876,101.119141 214.664063,100.210938 213.199219,99.4101562 C211.714844,98.6484375 209.771485,98.2480469 207.369141,98.2089844 C205.044922,98.2480469 203.140626,98.6484375 201.656251,99.4101562 C200.152344,100.210938 198.980469,101.119141 198.140626,102.134766 C197.007813,103.287109 196.167969,104.703125 195.621094,106.382812 C195.093751,108.101562 194.830079,110.5625 194.830079,113.765625 C194.830079,116.96875 195.093751,119.410156 195.621094,121.089844 C196.167969,122.769531 197.007813,124.224609 198.140626,125.455078 C198.980469,126.412109 200.152344,127.271484 201.656251,128.033203 C203.140626,128.873047 205.044922,129.3125 207.369141,129.351562 Z M207.369141,123.228516 C206.333985,123.228516 205.376954,123.013672 204.498047,122.583984 C203.658204,122.134766 202.97461,121.617188 202.447266,121.03125 C201.919922,120.269531 201.539063,119.390625 201.304688,118.394531 C201.070313,117.417969 200.953126,115.875 200.953126,113.765625 C200.953126,111.636719 201.070313,110.074219 201.304688,109.078125 C201.539063,108.121094 201.919922,107.28125 202.447266,106.558594 C202.97461,105.875 203.658204,105.337891 204.498047,104.947266 C205.376954,104.537109 206.333985,104.332031 207.369141,104.332031 C208.482422,104.332031 209.458985,104.537109 210.298829,104.947266 C211.177735,105.337891 211.841797,105.875 212.291016,106.558594 C212.896485,107.28125 213.296876,108.121094 213.492188,109.078125 C213.687501,110.074219 213.785157,111.65625 213.785157,113.824219 C213.785157,115.894531 213.687501,117.417969 213.492188,118.394531 C213.296876,119.390625 212.896485,120.269531 212.291016,121.03125 C211.841797,121.617188 211.177735,122.134766 210.298829,122.583984 C209.458985,123.013672 208.482422,123.228516 207.369141,123.228516 Z M231.447267,129 L231.447267,110.689453 C231.486329,108.462891 232.130861,106.851562 233.380861,105.855469 C234.494142,104.839844 235.832032,104.332031 237.394532,104.332031 C238.781251,104.332031 240.119142,104.839844 241.408204,105.855469 L245.861329,100.552734 C244.044923,99.0292969 241.916017,98.2480469 239.474611,98.2089844 C236.212892,98.2089844 233.576173,99.4101562 231.564454,101.8125 L231.447267,101.8125 L231.447267,98.5898438 L225.32422,98.5898438 L225.32422,129 L231.447267,129 Z M255.972658,92.4082031 L255.972658,86.2851562 L249.849611,86.2851562 L249.849611,92.4082031 L255.972658,92.4082031 Z M255.972658,129 L255.972658,98.5898438 L249.849611,98.5898438 L249.849611,129 L255.972658,129 Z"></path>
        </g>
    </g>
</svg>